<svg xmlns="http://www.w3.org/2000/svg" viewBox="0 0 580 230" width="104px" height="50px">
  <g fill="#28223F" fill-rule="evenodd" clip-path="url(#suins-logo-fill_svg__a)" clip-rule="evenodd">
    <path d="M196.102 72.938a1.98 1.98 0 0 0-1.978 1.978v117.686c0 20.141-16.325 36.469-36.462 36.469-20.137 0-36.461-16.328-36.461-36.469V74.916C121.201 33.542 154.736 0 196.102 0s74.9 33.542 74.9 74.916v79.239a1.98 1.98 0 0 0 3.957 0V36.469C274.959 16.328 291.283 0 311.42 0c20.137 0 36.461 16.328 36.461 36.469v117.686c0 41.374-33.535 74.916-74.9 74.916-41.366 0-74.901-33.542-74.901-74.916V74.916a1.98 1.98 0 0 0-1.978-1.978Zm229.776 1.17a1.98 1.98 0 0 0 0 3.957H505.1c41.366 0 74.901 33.542 74.901 74.916 0 41.374-33.535 74.916-74.901 74.916H387.439c-20.137 0-36.461-16.327-36.461-36.468 0-20.142 16.324-36.469 36.461-36.469H505.1a1.98 1.98 0 0 0 0-3.958h-79.222c-41.366 0-74.9-33.541-74.9-74.916 0-41.374 33.534-74.916 74.9-74.916h117.661c20.137 0 36.462 16.328 36.462 36.469 0 20.14-16.325 36.468-36.462 36.468H425.878Z">
    </path>
  </g>
  <rect width="113.692" height="113.692" y="114.766" fill="#28223F" rx="56.846"></rect>
  <path fill="#fff" fill-rule="evenodd" d="M72.807 166.367v.003a20.65 20.65 0 0 1 4.43 12.819c0 4.846-1.707 9.434-4.555 12.975l-.246.305-.065-.387c-.055-.329-.12-.663-.195-.998-1.425-6.335-6.069-11.768-13.711-16.166-5.161-2.962-8.115-6.529-8.89-10.581-.502-2.621-.13-5.253.59-7.508.72-2.254 1.79-4.142 2.7-5.278l2.973-3.679a1.296 1.296 0 0 1 2.018 0l14.952 18.496v-.001Zm4.703-3.675v-.001l-19.927-24.65a.945.945 0 0 0-1.474 0l-19.927 24.65v.002l-.064.082a26.91 26.91 0 0 0-5.861 16.822c0 14.831 11.904 26.856 26.59 26.856 14.684 0 26.588-12.025 26.588-26.856a26.912 26.912 0 0 0-5.861-16.823l-.066-.082h.002Zm-36.559 3.595 1.783-2.206.053.408c.043.322.095.646.156.972 1.153 6.122 5.273 11.226 12.16 15.179 5.988 3.447 9.474 7.411 10.478 11.759.42 1.815.494 3.6.313 5.161l-.011.096-.087.043a20.136 20.136 0 0 1-8.95 2.085c-11.262 0-20.391-9.22-20.391-20.595a20.64 20.64 0 0 1 4.495-12.901l.001-.001Z" clip-rule="evenodd">
  </path>
  <defs>
    <clipPath id="suins-logo-fill_svg__a">
      <path fill="currentColor" d="M121.2 0H580v229.071H121.2z"></path>
    </clipPath>
  </defs>
</svg>