<svg viewBox="148.108 45.79 32.473 43.245" width="32.473" height="43.245" xmlns="http://www.w3.org/2000/svg" class="block w-[24px]"><path class="cls-1" d="M392.45,249.91c-.95-1.65-1.9-2.37-2.86-3.98l-.3-.48-.28,.48c-.95,1.6-1.9,2.31-2.84,3.95-.42,.74-.58,1.53-.44,2.38,.31,1.85,2,3.19,3.82,3.04,1.96-.17,3.36-1.68,3.35-3.62,.01-.63-.15-1.22-.46-1.77Z" transform="matrix(1, 0, 0, 1, -236.690018, -166.374771)" style="fill: rgb(255, 255, 255);"></path><path class="cls-1" d="M403.45,255.41c2.99-1.04,5.96-3.33,6.69-6.17,.86-3.34-.85-6.15-5.24-8.58-3.2-1.78-4.49-2.34-6.43-3.18-1.04-.45-2.26-.98-4.07-1.83-6.05-2.83-11.57-8.13-8.92-14.51,2.34-5.64,9.16-9.24,16.96-8.96,2.87,.1,5.8,.73,8.6,1.83-.7-.07-1.41-.12-2.12-.15-3.24-.12-6.28,.3-8.78,1.19-2.59,.93-4.72,2.53-5.99,4.52-1.97,3.08-.68,6.83,3.07,8.91,3.16,1.75,4.56,2.27,6.5,2.99,1.13,.42,2.41,.89,4.34,1.71,6.04,2.57,11.03,8.15,8.57,14.83-1.59,4.33-7.21,7.45-13.18,7.38Z" transform="matrix(1, 0, 0, 1, -236.690018, -166.374771)" style="fill: rgb(255, 255, 255);"></path></svg>